/* XPM */
static char *_051f520ee884935b96d979d587e1cfe2J0Tt4muu9jQFMRz[] = {
/* columns rows colors chars-per-pixel */
"64 64 4 1 ",
"  c None",
". c #EAC37C",
"X c #E7BD78",
"o c #EDCA86",
/* pixels */
"o..o.ooo....oo...o.....X.........X...X.......X..o.X.............",
"o....oo.........oo..............X.XX..o.X.XX..............X..X..",
"o.X.........o..o........o.X.X..X....X......X............X.......",
"oo.........o.o...............X.......XX..XX....X.....X..........",
"oo.oooo...o.........o...........X......X...X...X................",
"o.........o........o.o......X.....X....X......X................X",
"o...o...o.....o.........oo........X..X...X..X....o........X.....",
"o......o...oo...o....X...............X.XX..X..X..o..XX..X......X",
"oo...o.o....o.................X..o.X....XX.....XX.......X.......",
"o...o..o.....oo......o.............X......XX.X......X...X..XX...",
"oo..............o........o....X...............X.X....X.X.....XXX",
"o.......X...o.X............X.....o.......X....X.X.X..XX..XXX...X",
"o..........X....X..XX....................X..X.....XXX..XX..XXX..",
"o..o.....X.......X.XX.X.X.........o.......X....X.XX.XXX..XX.X..X",
"oo........X........X...X.X....o.......X..X....X..XX....XXX...XXX",
"o.......o.........X.X.X....X..o....X...X.X.........XXXXXX..XX.XX",
"o.ooo...................X................X.X..X..XX.X.X...X..XXX",
"oo...oo....X......X.XX.X..........XX..X...........X...X..X..X.XX",
"o.o..o...o........X...XX.X.X.X.X..............X.X.X..XX...X.X.XX",
"o.o.........o.........X..X......X.XX....X.X..........X...XX.X.XX",
"o......o............X.X.XX...X.X.X....X.XX.....X.....X..X..XX.X.",
"o...o.X........X.....XXX.X..X..XXX.X....X...XXX........XX..XXXXX",
"oo......................X.X...X......X..X.X.XX...........X.XX.XX",
"o.o..........o.X......X.....X..X...X.X...XXXX...X....X..........",
"ooo..o..X...............X.......X.X.....X...XX.X...X.....XX...X.",
"o.....oo.......X......X..X........X.....X....X.X.X...X..X....X..",
"oo..X.............XX....X...........XXXX...X..XXX...XX.X......X.",
"o.......XX.......X..XX..X...............X...X......X...X........",
"oo.............X....X............o.......X.XX.XX...XX.XXX.X.....",
"o.oo........o..X.X.........X.XX.....X...........XX.....XX...X...",
"o...oo.....................................X.X..XX.XX.X........X",
"o.......o....X.....X.....X.........X.X.......X.......X.XX..X..X.",
"o....X.o...o......o............X.....X.X....XXX..X.X......XX.XX.",
"oo...........X.....................X......X...X..X...X..........",
"oo...o...........XX....X..X.....X.X.X.X.....XX..X...X....XX.X...",
"o...................X....X.X.............X..X..XX...X........X..",
"oo...X..........X.o..X.....X.X.XX..XXX...X.X...X...X.X.X...X..X.",
"o..o........X.X....X........X...X.X...XX.....XX.X......X..X...X.",
"o..o..o.........X..X.XX..X..........X....X.X.XX.XX...XX.....X.XX",
"o.........XX.X.........XX........X..XX....X.....X...X....X.X....",
"o...........X..X.....X....X.XXX...X......XX.XXXXX.XXXXXX..XX.X..",
"oo.....X.X......X.....XXX..X...X...X.X..XX...XXX.XX...XX..XX..X.",
"o.......X.X...X.X.XXXXXXXXXXX.X..XX.X.XX..XXXX.X.XXX...XX.XXX.XX",
"o.X.......X.X...XXXX.........X...X....X.X...XX.X.XXXXXXXXXX.X.XX",
"ooo...X....X.X..XXX.X.X.XX.X.X..X..XX.X.X.X..X....XX.XXXX.XX.XXX",
"o...oo...X...X.XX.......XX...X.X...X.X....XXXXX.X.XX...X.X..XXX.",
"oo.........X...X.X.X.X.XX.XX.XX.X.X..X.X.X..X.XXX.XXXX....XX..X.",
"o..o.....X....X.o.X...XXXX.XXXXX.XXXXXXXXX.X.X...XXXX..XXXXXXX.X",
"oo............X....X.X.X....XXXX.XXXXXXXX..X.X.XXXX...XX.X.XXXXX",
"o.o.....o.X...X...XX.....XXXX..XX.XX...XX.XXXXX..X..XXXXX.XXXX.X",
"oo............XXX...XXX..XXXX....XX.XXXX..X.XXXXXX.XX.X..X...XXX",
"oo.o......X...........XXX..XX..XXXXXXXXXX.XXXXXXX....X..XXXX.X..",
"o..............X.o.X.X.X.X...XX.XX.XX..XXXX.XXXXX..X..X..XX.X...",
"o....X.................X.X.X..XXXX.XXX..XXXXX..XXXX.X.X...XXX.X.",
"o..ooo.o.....X..XX....X.X.X...X.XXXXXXX.X.XXXXXXXXX.XXXXX....X..",
"o....X...X.o..X.XX.X........XX..X.X.XXXXXX.X..XXXXXXX..XX...X..X",
"oo..............X.X.XXX.X.X..XXXXXX.XXXX.XXXX..X...XXX..XXX.XXX.",
"o....oo....XX..X......XXX..X...XXXXXXXX..XXXXXXXXX.XXXX.XX..XXXX",
"o..............XXXX.....XX.......XXXXXXXXXXXXXXXX.XXXXXXXX..XXX.",
"o.o.o.......X.....X...........XX.X..XXXXXXXXXX..XXXXXXXXXX.XXXX.",
"ooo...ooo.....o......XXX.....XXXXXX.X...XXXXXXX.X..XXX.XXXXXXX.X",
"ooooo...oo....o....X....XX.....XXXX..XXXX.XXXXXXXXXX.XXXX..XXXX.",
"o.oooo....oo....o.XX...X.XXX.X..X....XXXXXXXXXXXXXXXXXX........X",
"                                                                "
};
