/* XPM */
static char *result[] = {
/* columns rows colors chars-per-pixel */
"64 64 212 2 ",
"   c #060303",
".  c #0D0505",
"X  c #0E0808",
"o  c #1B0B1A",
"O  c #220B08",
"+  c #261819",
"@  c #25181A",
"#  c #361E19",
"$  c #301F1E",
"%  c #322020",
"&  c #332121",
"*  c #622A0E",
"=  c #752F09",
"-  c #742F0A",
";  c #76300F",
":  c #793009",
">  c #78300A",
",  c #7B320E",
"<  c #7C350E",
"1  c #7F350F",
"2  c #6D2D19",
"3  c #7A261B",
"4  c #6A3714",
"5  c #783F1D",
"6  c #5F2139",
"7  c #672824",
"8  c #693A20",
"9  c #682135",
"0  c #7E3331",
"q  c #5C4721",
"w  c #5C4722",
"e  c #674B25",
"r  c #674D26",
"t  c #6C4C24",
"y  c #71532A",
"u  c #72532A",
"i  c #77572E",
"p  c #7D5D32",
"a  c #370B73",
"s  c #3B0B73",
"d  c #7F2A4B",
"f  c #632453",
"g  c #7E2C53",
"h  c #450E68",
"j  c #490F78",
"k  c #561674",
"l  c #5D1D75",
"z  c #671E66",
"x  c #9D0D1E",
"c  c #83290D",
"v  c #87340B",
"b  c #8C350C",
"n  c #8B380F",
"m  c #93360F",
"M  c #93390D",
"N  c #9B3A0D",
"B  c #843713",
"V  c #803E17",
"C  c #893D17",
"Z  c #8F3F14",
"A  c #8D3118",
"S  c #A30C20",
"D  c #BF1128",
"F  c #84302A",
"G  c #9C3028",
"H  c #A33E27",
"J  c #AC3F22",
"K  c #DC062A",
"L  c #CE1126",
"P  c #E1152D",
"I  c #8E4B1C",
"U  c #92441C",
"Y  c #93451C",
"T  c #96441C",
"R  c #BA470D",
"E  c #A34213",
"W  c #AF4316",
"Q  c #A4401A",
"!  c #BE4D16",
"~  c #B24D1A",
"^  c #B14E1B",
"/  c #B54D1B",
"(  c #B4501D",
")  c #BF5119",
"_  c #8B4D21",
"`  c #9F4124",
"'  c #9D4E24",
"]  c #8E572E",
"[  c #8A5A2E",
"{  c #9A453C",
"}  c #875F35",
"|  c #9D5A35",
" . c #A74E21",
".. c #AC5427",
"X. c #B05C2F",
"o. c #AD5E35",
"O. c #B55D34",
"+. c #876439",
"@. c #8D643A",
"#. c #93673F",
"$. c #91683F",
"%. c #B86134",
"&. c #B5643A",
"*. c #BE673A",
"=. c #C04E15",
"-. c #C35520",
";. c #C85924",
":. c #C85F2C",
">. c #C1602F",
",. c #CB612C",
"<. c #CD622D",
"1. c #CD642E",
"2. c #C56333",
"3. c #CD6A3B",
"4. c #C96F3B",
"5. c #D36C39",
"6. c #D46F3E",
"7. c #993166",
"8. c #8E2E71",
"9. c #8A3C75",
"0. c #8D6B40",
"q. c #996C41",
"w. c #986F46",
"e. c #987249",
"r. c #9D764E",
"t. c #A76946",
"y. c #AC6D45",
"u. c #A67A4C",
"i. c #AE7752",
"p. c #A87D55",
"a. c #B77A55",
"s. c #BF7A55",
"d. c #A95763",
"f. c #D95B41",
"g. c #C6664C",
"h. c #CD7143",
"j. c #C2764A",
"k. c #D27547",
"l. c #DB7847",
"z. c #D17749",
"x. c #D47D4F",
"c. c #DC7A4A",
"v. c #DD7D4D",
"b. c #C26E50",
"n. c #CC735B",
"m. c #AB8153",
"M. c #B08457",
"N. c #B38858",
"B. c #B58A5B",
"V. c #B78A5A",
"C. c #B88D5E",
"Z. c #B28B62",
"A. c #BB8F61",
"S. c #B99265",
"D. c #BE9466",
"F. c #DA8155",
"G. c #DF8054",
"H. c #D88659",
"J. c #DF8A5E",
"K. c #C38569",
"L. c #D08D64",
"P. c #D78D64",
"I. c #C49469",
"U. c #C1986D",
"Y. c #C98D7F",
"T. c #C59B70",
"R. c #C69D72",
"E. c #C79F75",
"W. c #C89F74",
"Q. c #E49668",
"!. c #E09C74",
"~. c #CCA27A",
"^. c #CFA67F",
"/. c #E0A27C",
"(. c #470C88",
"). c #4E0C92",
"_. c #540D97",
"`. c #60159F",
"'. c #6C1A99",
"]. c #5C22A1",
"[. c #6026A8",
"{. c #6A21AC",
"}. c #7E2BBE",
"|. c #8F2D94",
" X c #814091",
".X c #8C4598",
"XX c #9C4EA2",
"oX c #8434C4",
"OX c #863ECE",
"+X c #873FCF",
"@X c #8B42C2",
"#X c #8B4AD5",
"$X c #904FD9",
"%X c #CDAB86",
"&X c #D2AE89",
"*X c #D3AF8A",
"=X c #D4B28E",
"-X c #D9B795",
";X c #D9BA98",
":X c #DABD9C",
">X c #D9BE9D",
",X c #E1A885",
"<X c #E2AF8B",
"1X c #DAC3A3",
"2X c #DCC5A6",
"3X c #E0CAAD",
"4X c #E1CCB1",
"5X c #E3CFB3",
"6X c #E4D2B7",
"7X c #E7D6BD",
"8X c #E8D9C0",
"9X c None",
/* pixels */
"9X9X9X9X9X9X9X9X9X9X9X9X9X9X9X9X9X9X9X9X9X9X9X9X9X9X9X9X9X9X9X9X9X9X9X9X9X9X9X9X9X9X9X9X9X9X9X9X9X9X9X9X9X9X9X9X9X9X9X9X9X9X9X9X",
"9X9X9X9X9X9X9X9X9X9X9X9X9X9X9X9X9X9X9X9X9X9X9X9X9X9X9X9X9X9X9X9X9X9X9X9X9X9X9X9X9X9X9X9X9X9X9X9X9X9X9X9X9X9X9X9X9X9X9X9X9X9X9X9X",
"9X9X9X9X9X9X9X9X9X9X9X9X9X9X9X9X9X9X9X9X9X9X9X9X9X9X9X9X9X9X9X9X9X9X9X9X9X9X9X9X9X9X9X9X9X9X9X9X9X9X9X9X9X9X9X9X9X9X9X9X9X9X9X9X",
"9X9X9X9X9X9X9X9X9X9X9X9X9X9X9X9X9X9X9X9X9X9X9X9X9X9X9X9X9X9X9X9X9X9X9X9X9X9X9X9X9X9X9X9X9X9X9X9X9X9X9X9X9X9X9X9X9X9X9X9X9X9X9X9X",
"9X9X9X9X9X9X9X9X9X9X9X9X9X9X9X9X9X9X9X9X9X9X9X9X9X9X9X9X9X9X9X9X9XA c 9X9X9X9X9X9X9X9X9X9X9X9X9X9X9X9X9X9X9X9X9X9X9X9X9X9X9X9X9X",
"9X9X9X9X9X9X9X9X9X9X9X9X9X9X9X9X9X9X9X9X9X9X9X9X9X9X9X9X9X9X9X9X9 L x . & % 9X9X9X9X9X9X9X9X9X9X9X9X9X9X9X9X9X9X9X9X9X9X9X9X9X9X",
"9X9X9X9X9X9X9X9X9X9X9X9X9X9X9X9X9X9X9X9X9X9X9X9X9X9X9X9X9X9X9X9X7 S O       . . % 9X9X9X9X9X9X9X9X9X9X9X9X9X9X9X9X9X9X9X9X9X9X9X",
"9X9X9X9X9X9X9X9X9X9X9X9X9X9X9X9X9X9X9X9X9X9X9X9X9X9X9X9X9X9X9XX # O               X 9X9X9X9X9X9X9X9X9X9X9X9X9X9X9X9X9X9X9X9X9X9X",
"9X9X9X9X9X9X9X9X9X9X9X9X9X9X9X9X9X9X9X9X9X9X9X9X9X9X9X9X9X9X9X9X        # * 1 O   + 9X9X9X9X9X9X9X9X9X9X9X9X9X9X9X9X9X9X9X9X9X9X",
"9X9X9X9X9X9X9X9X9X9X9X9X9X9X9X9X9X9X9X9X9X9X9X9X9X9X9X9X9X9X9X9Xo # # 8 r.8 E O + 9X9X9X9X9X9X9X9X9X9X9X9X9X9X9X9X9X9X9X9X9X9X9X",
"9X9X9X9X9X9X9X9X9X9X9X9X9X9X9X9X9X9X9X9X9X9X9X9X9X9X9X9X9X9X9X9X# | 1 ..I...2.2 9X9X9X9X9X9X9X9X9X9X9X9X9X9X9X9X9X9X9X9X9X9X9X9X",
"9X9X9X9X9X9X9X9X9X9X9X9X9X9X9X9X9X9X9X9X9X9X9X9X9X9X9X9X9X9X9X@ O T W -.H.P.v.~ 9X9X9X9X9X9X9X9X9X9X9X9X9X9X9X9X9X9X9X9X9X9X9X9X",
"9X9X9X9X9X9X9X9X9X9X9X9X9X9X9X9X9X9X9X9X9X9X9X9X9X9X9X9X9X9X9X#   # m -.!.,X2.I 9X9X9X9X9X9X9X9X9X9X9X9X9X9X9X9X9X9X9X9X9X9X9X9X",
"9X9X9X9X9X9X9X9X9X9X9X9X9X9X9X9X9X9X9X9X9X9X9X9X9X9X9X9X9X9X9X$ o O E ! z.~.[ 9X9X9X9X9X9X9X9X9X9X9X9X9X9X9X9X9X9X9X9X9X9X9X9X9X",
"9X9X9X9X9X9X9X9X9X9X9X9X9X9X9X9X9X9X9X9X9X9X9X9X9X9X9X9X9X(.(.'.f B <.! E *.u 9X9X9X9X9X9X9X9X9X9X9X9X9X9X9X9X9X9X9X9X9X9X9X9X9X",
"9X9X9X9X9X9X9X9X9X9X9X9X9X9X9X9X9X9X9X9X9X9X9X9X9X9X9X9X6 ).{.}.|.-.l.W 9 Q 9X9X9X9X9X9X9X9X9X9X9X9X9X9X9X9X9X9X9X9X9X9X9X9X9X9X",
"9X9X9X9X9X9X9X9X9X9X9X9X9X9X9X9X9X9X9X9X9X9X9X9X9X9X9XY { z {.+X|.3.v.b.g 9X9X9X9X9X9X9X9X9X9X9X9X9X9X9X9X9X9X9X9X9X9X9X9X9X9X9X",
"9X9X9X9X9X9X9X9X9X9X9X9X9X9X9X9X9X9X9X9X9X9X9X9X9X9XX.s.H.{ ].OX|.F.!./.O.k 9X9X9X9X9X9X9X9X9X9X9X9X9X9X9X9X9X9X9X9X9X9X9X9X9X9X",
"9X9X9X9X9X9X9X9X9X9X9X9X9X9X9X9X9X9X9X9X9X9X9X9X9X=.z.<XQ.d.].OX|.J.<X<XK.l J 9X9X9X9X9X9X9X9X9X9X9X9X9X9X9X9X9X9X9X9X9X9X9X9X9X",
"9X9X9X9X9X9X9X9X9X9X9X9X9X9X9X9X9X9X9X9X9X9X9X9X=.;.x.Q.n.9.{.OX|.z./.<XY.l A 9X9X9X9X9X9X9X9X9X9X9X9X9X9X9X9X9X9X9X9X9X9X9X9X9X",
"9X9X9X9X9X9X9X9X9X9X9X9X9X9X9X9X9X9X9X9X9X9X9XX.x.J.l.g.9.`.oX@X7.! l.!.n.l 2 9X9X9X9X9X9X9X9X9X9X9X9X9X9X9X9X9X9X9X9X9X9X9X9X9X",
"9X9X9X9X9X9X9X9X9X9X9X9X9X9X9X9X9X9X9X9X9X9XC s.,XJ.,.d ).}.$XXX! -.<.v.g.k 6 9X9X9X9X9X9X9X9X9X9X9X9X9X9X9X9X9X9X9X9X9X9X9X9X9X",
"9X9X9X9X9X9X9X9X9X9X9X9X9X9X9X9X9X9X9X9X9X- O.l.h.,.Q (.`.oX#X.X;.J.J.l.` j 9X9X9X9X9X9X9X9X9X9X9X9X9X9X9X9X9X9X9X9X9X9X9X9X9X9X",
"9X9X9X9X9X9X9X9X9X9X9X9X9X9X9X9X9X9X9X9X9X: &.5.E ; (.`.oX$X@X8.3.,X!.3.7 s 9X9X9X9X9X9X9X9X9X9X9X9X9X9X9X9X9X9X9X9X9X9X9X9X9X9X",
"9X9X9X9X9X9X9X9X9X9X9X9X9X9X9X9X9X9X9X9X9X: a.!.<.F _.}.$X$X.XT F./.v.` o a 9X9X9X9X9X9X9X9X9X9X9X9X9X9X9X9X9X9X9X9X9X9X9X9X9X9X",
"9X9X9X9X9X9X9X9X9X9X9X9X9X9X9X9X9X9X9X9X9X: a.<Xj.Q 9X[.#X$X.Xn -.z.*.7 s 9X9X9X9X9X9X9X9X9X9X9X9X9X9X9X9X9X9X9X9X9X9X9X9X9X9X9X",
"9X9X9X9X9X9X9X9X9X9X9X9X9X9X9X9X9X9X9X9X9X: O.!.y.> 9X9X[.#X.X1 n m 3 o s 9X9X9X9X9X9X9X9X9X9X9X9X9X9X9X9X9X9X9X9X9X9X9X9X9X9X9X",
"9X9X9X9X9X9X9X9X9X9X9X9X9X9X9X9X9X9X9X9X9X= E H.y.> 9X9X9X]. XT f.L S o s 9X9X9X9X9X9X9X9X9X9X9X9X9X9X9X9X9X9X9X9X9X9X9X9X9X9X9X",
"9X9X9X9X9X9X9X9X9X9X9X9X9X9X9X9X9X9X9X9X9X9X: a.y.> 9X9X9Xf z ` f.L 3 h j 9X9X9X9X9X9X9X9X9X9X9X9X9X9X9X9X9X9X9X9X9X9X9X9X9X9X9X",
"9X9X9X9X9X9X9X9X9X9X9X9X9X9X9X9X9X9X9X9X9X9X; &.o.< 9X9X[ #.0 L P D 7 ` H , 9X9X9X9X9X9X9X9X9X9X9X9X9X9X9X9X9X9X9X9X9X9X9X9X9X9X",
"9X9X9X9X9X9X9X9X9X9X9X9X9X9X9X9X9X9X9X9X9X9X; O.P.I.t.V r.D.q.G K D 8 T 2.V 9X9X9X9X9X9X9X9X9X9X9X9X9X9X9X9X9X9X9X9X9X9X9X9X9X9X",
"9X9X9X9X9X9X9X9X9X9X9X9X9X9X9X9X9X9X9X9X9X9X; O.!.K.o.| e.W.C.p.{ 5 i i.' %.C 9X9X9X9X9X9X9X9X9X9X9X9X9X9X9X9X9X9X9X9X9X9X9X9X9X",
"9X9X9X9X9X9X9X9X9X9X9X9X9X9X9X9X9X9X9X9X9X9X; O.J.L.y._ r.^.T.D.Z.r.m.U.] ' *.k.9X9X9X9X9X9X9X9X9X9X9X9X9X9X9X9X9X9X9X9X9X9X9X9X",
"9X9X9X9X9X9X9X9X9X9X9X9X9X9X9X9X9X9X9X9X9X9X9XU *.l. ._ C.=X=XT.>XT.C.D.M.Z h...k.9X9X9X9X9X9X9X9X9X9X9X9X9X9X9X9X9X9X9X9X9X9X9X",
"9X9X9X9X9X9X9X9X9X9X9X9X9X9X9X9X9X9X9X9X9X9X9X9XU T 1 } D.;X>XU.>X-XV.A.U.] ' O.:.9X9X9X9X9X9X9X9X9X9X9X9X9X9X9X9X9X9X9X9X9X9X9X",
"9X9X9X9X9X9X9X9X9X9X9X9X9X9X9X9X9X9X9X9X9X9X9X9X9X4 t 0.W.4X2XU.^.3XT.D.=Xu.E ;.9X9X9X9X9X9X9X9X9X9X9X9X9X9X9X9X9X9X9X9X9X9X9X9X",
"9X9X9X9X9X9X9X9X9X9X9X9X9X9X9X9X9X9X9X9X9X9X9X9X9X9Xp M.=X8X3XW.T.4X~.U.3XT.4.) 9X9X9X9X9X9X9X9X9X9X9X9X9X9X9X9X9X9X9X9X9X9X9X9X",
"9X9X9X9X9X9X9X9X9X9X9X9X9X9X9X9X9X9X9X9X9X9X9X9X9X9X+.I.;X8X6X&XU.-X~.U.5X>XR.9X9X9X9X9X9X9X9X9X9X9X9X9X9X9X9X9X9X9X9X9X9X9X9X9X",
"9X9X9X9X9X9X9X9X9X9X9X9X9X9X9X9X9X9X9X9X9X9X9X9X9X9X0.W.;X8X8X1XD.^.~.U.6X7X:X9X9X9X9X9X9X9X9X9X9X9X9X9X9X9X9X9X9X9X9X9X9X9X9X9X",
"9X9X9X9X9X9X9X9X9X9X9X9X9X9X9X9X9X9X9X9X9X9X9X9X9X9X0.W.;X8X8X2XT.^.W.N.>X7X6XE.9X9X9X9X9X9X9X9X9X9X9X9X9X9X9X9X9X9X9X9X9X9X9X9X",
"9X9X9X9X9X9X9X9X9X9X9X9X9X9X9X9X9X9X9X9X9X9X9X9X9X9X+.I.;X8X8X3X^.W.U.e.-X7X7X:X9X9X9X9X9X9X9X9X9X9X9X9X9X9X9X9X9X9X9X9X9X9X9X9X",
"9X9X9X9X9X9X9X9X9X9X9X9X9X9X9X9X9X9X9X9X9X9X9X9X9X9Xp C.;X8X8X5X%XA.A.r.4X8X8X6XE.9X9X9X9X9X9X9X9X9X9X9X9X9X9X9X9X9X9X9X9X9X9X9X",
"9X9X9X9X9X9X9X9X9X9X9X9X9X9X9X9X9X9X9X9X9X9X9X9X9X9Xy p.;X8X8X8X1XC.m.r.4X5X7X6X*X9X9X9X9X9X9X9X9X9X9X9X9X9X9X9X9X9X9X9X9X9X9X9X",
"9X9X9X9X9X9X9X9X9X9X9X9X9X9X9X9X9X9X9X9X9X9X9X9X9Xe i p.;X8X8X8X2XV.u.e.>X%X6X7X*X9X9X9X9X9X9X9X9X9X9X9X9X9X9X9X9X9X9X9X9X9X9X9X",
"9X9X9X9X9X9X9X9X9X9X9X9X9X9X9X9X9X9X9X9X9X9X9X9Xq i @.p.-X6X8X7X>Xm.} e.~.~.5X7X*X9X9X9X9X9X9X9X9X9X9X9X9X9X9X9X9X9X9X9X9X9X9X9X",
"9X9X9X9X9X9X9X9X9X9X9X9X9X9X9X9X9X9X9X9X9X9X9X9Xw 0.u.m.~.%X3X4X~.r.p N.=X6X7X4XS.9X9X9X9X9X9X9X9X9X9X9X9X9X9X9X9X9X9X9X9X9X9X9X",
"9X9X9X9X9X9X9X9X9X9X9X9X9X9X9X9X9X9X9X9X9X9X9X9Xw e.U.D.Z.q.Z.>XU.+.@.D.3X7X5X^.w.9X9X9X9X9X9X9X9X9X9X9X9X9X9X9X9X9X9X9X9X9X9X9X",
"9X9X9X9X9X9X9X9X9X9X9X9X9X9X9X9X9X9X9X9X9X9X9X9Xw 0.U.Z.y.x.j.M.Z.y e.~.=X3X&XB.$.9X9X9X9X9X9X9X9X9X9X9X9X9X9X9X9X9X9X9X9X9X9X9X",
"9X9X9X9X9X9X9X9X9X9X9X9X9X9X9X9X9X9X9X9X9X9X9X9Xw +.I.Z.y.j.p.U.r.i N.^.^.&XW.w.9X9X9X9X9X9X9X9X9X9X9X9X9X9X9X9X9X9X9X9X9X9X9X9X",
"9X9X9X9X9X9X9X9X9X9X9X9X9X9X9X9X9X9X9X9X9X9X9X9Xw i u.V.u.u.U.u.y @.V.~.^.~.B.$.9X9X9X9X9X9X9X9X9X9X9X9X9X9X9X9X9X9X9X9X9X9X9X9X",
"9X9X9X9X9X9X9X9X9X9X9X9X9X9X9X9X9X9X9X9X9X9X9X9Xw y e.N.M.M.m.} t } q.V.C.N.$.9X9X9X9X9X9X9X9X9X9X9X9X9X9X9X9X9X9X9X9X9X9X9X9X9X",
"9X9X9X9X9X9X9X9X9X9X9X9X9X9X9X9X9X9X9X9X9X9X9X9X> 5 i r.u.#.} r 9X5 } #.@.u 9X9X9X9X9X9X9X9X9X9X9X9X9X9X9X9X9X9X9X9X9X9X9X9X9X9X",
"9X9X9X9X9X9X9X9X9X9X9X9X9X9X9X9X9X9X9X9X9X9X9X9X> Z _ y y t r 9X9XB ^  .V 9X9X9X9X9X9X9X9X9X9X9X9X9X9X9X9X9X9X9X9X9X9X9X9X9X9X9X",
"9X9X9X9X9X9X9X9X9X9X9X9X9X9X9X9X9X9X9X9X9X9X9X9X>  .>.Z 4 9X9X9X9X/ 2.M 9X9X9X9X9X9X9X9X9X9X9X9X9X9X9X9X9X9X9X9X9X9X9X9X9X9X9X9X",
"9X9X9X9X9X9X9X9X9X9X9X9X9X9X9X9X9X9X9X9X9X9X9X9XQ 2.>.b 9X9X9X9Xb ;.h.F 9X9X9X9X9X9X9X9X9X9X9X9X9X9X9X9X9X9X9X9X9X9X9X9X9X9X9X9X",
"9X9X9X9X9X9X9X9X9X9X9X9X9X9X9X9X9X9X9X9X9X9X9X9X( J.y.= 9X9X9X9XZ z.P.( 9X9X9X9X9X9X9X9X9X9X9X9X9X9X9X9X9X9X9X9X9X9X9X9X9X9X9X9X",
"9X9X9X9X9X9X9X9X9X9X9X9X9X9X9X9X9X9X9X9X9X9X9XM >.!.i.= 9X9X9Xv ^ J.!.( 9X9X9X9X9X9X9X9X9X9X9X9X9X9X9X9X9X9X9X9X9X9X9X9X9X9X9X9X",
"9X9X9X9X9X9X9X9X9X9X9X9X9X9X9X9X9X9X9X9X9X9X-  .H.-XK.N 9X9X9XZ 5.J./.4.6.9X9X9X9X9X9X9X9X9X9X9X9X9X9X9X9X9X9X9X9X9X9X9X9X9X9X9X",
"9X9X9X9X9X9X9X9X9X9X9X9X9X9X9X9X9X9X9X9X9X9XN 2.F.H.x.6.9X9X9XZ <.3.z.5.l.5.6.9X9X9X9X9X9X9X9X9X9X9X9X9X9X9X9X9X9X9X9X9X9X9X9X9X",
"9X9X9X9X9X9X9X9X9X9X9X9X9X9X9X9X9X9X9X9X9X9X9X1.1.R 1.9X9X9X9X> R R R ) c.G.c.) 9X9X9X9X9X9X9X9X9X9X9X9X9X9X9X9X9X9X9X9X9X9X9X9X",
"9X9X9X9X9X9X9X9X9X9X9X9X9X9X9X9X9X9X9X9X9X9X9X9X9X9X9X9X9X9X9X9X9X9X9X9X9X9X9X9X9X9X9X9X9X9X9X9X9X9X9X9X9X9X9X9X9X9X9X9X9X9X9X9X",
"9X9X9X9X9X9X9X9X9X9X9X9X9X9X9X9X9X9X9X9X9X9X9X9X9X9X9X9X9X9X9X9X9X9X9X9X9X9X9X9X9X9X9X9X9X9X9X9X9X9X9X9X9X9X9X9X9X9X9X9X9X9X9X9X",
"9X9X9X9X9X9X9X9X9X9X9X9X9X9X9X9X9X9X9X9X9X9X9X9X9X9X9X9X9X9X9X9X9X9X9X9X9X9X9X9X9X9X9X9X9X9X9X9X9X9X9X9X9X9X9X9X9X9X9X9X9X9X9X9X",
"9X9X9X9X9X9X9X9X9X9X9X9X9X9X9X9X9X9X9X9X9X9X9X9X9X9X9X9X9X9X9X9X9X9X9X9X9X9X9X9X9X9X9X9X9X9X9X9X9X9X9X9X9X9X9X9X9X9X9X9X9X9X9X9X"
};
