/* XPM */
static char *result[] = {
/* columns rows colors chars-per-pixel */
"64 64 211 2 ",
"   c #050203",
".  c #070404",
"X  c #070405",
"o  c #070505",
"O  c #080505",
"+  c #0E0708",
"@  c #1A1111",
"#  c #290D0C",
"$  c #3B0A0E",
"%  c #2B1C1A",
"&  c #2A1B1C",
"*  c #3D1719",
"=  c #331F1F",
"-  c #3D231E",
";  c #49091B",
":  c #512411",
">  c #7B310C",
",  c #7F300C",
"<  c #7F350E",
"1  c #773415",
"2  c #412627",
"3  c #482627",
"4  c #742625",
"5  c #772F2B",
"6  c #752B2C",
"7  c #7A3B24",
"8  c #783C2C",
"9  c #612137",
"0  c #77283D",
"q  c #69441D",
"w  c #6F471D",
"e  c #6A4720",
"r  c #624924",
"t  c #654C24",
"y  c #684A24",
"u  c #7D4E27",
"i  c #6A5128",
"p  c #6F542C",
"a  c #71502F",
"s  c #77562D",
"d  c #7B5A2F",
"f  c #2C0863",
"g  c #3D0B7F",
"h  c #421152",
"j  c #43105D",
"k  c #5C1D5C",
"l  c #7B284F",
"z  c #5B1966",
"x  c #58166E",
"c  c #470C7C",
"v  c #521776",
"b  c #581276",
"n  c #681F7F",
"m  c #6F266B",
"M  c #74347C",
"N  c #82360F",
"B  c #85340F",
"V  c #89360C",
"C  c #932816",
"Z  c #813614",
"A  c #853E17",
"S  c #8D3B14",
"D  c #8C3E17",
"F  c #883E18",
"G  c #893E1B",
"H  c #9E3F11",
"J  c #A61529",
"K  c #B21626",
"L  c #86292A",
"P  c #803835",
"I  c #B9222B",
"U  c #DB0C2A",
"Y  c #C31326",
"T  c #DC2531",
"R  c #85471C",
"E  c #95431A",
"W  c #90441D",
"Q  c #96461D",
"!  c #A84415",
"~  c #A74C1D",
"^  c #B74912",
"/  c #B34B18",
"(  c #B74F1D",
")  c #BC4E19",
"_  c #8D4B24",
"`  c #914B23",
"'  c #904C26",
"]  c #9D4E20",
"[  c #855330",
"{  c #835D34",
"}  c #905732",
"|  c #9D5B30",
" . c #A14F26",
".. c #AE442C",
"X. c #B54A26",
"o. c #B84A24",
"O. c #B4422F",
"+. c #B65325",
"@. c #B05929",
"#. c #BF5A28",
"$. c #B74E3D",
"%. c #AA5831",
"&. c #8C6338",
"*. c #8E683E",
"=. c #B86033",
"-. c #BF6132",
";. c #B6673C",
":. c #C1511A",
">. c #C0521B",
",. c #C75720",
"<. c #C45A24",
"1. c #C75D2A",
"2. c #D1573C",
"3. c #CE6029",
"4. c #CA602C",
"5. c #C56434",
"6. c #D16D3D",
"7. c #D06F3C",
"8. c #8E3242",
"9. c #9A464F",
"0. c #BD5655",
"q. c #916940",
"w. c #976E44",
"e. c #9B7245",
"r. c #9F754A",
"t. c #A26C46",
"y. c #A4784A",
"u. c #A77C4F",
"i. c #B57247",
"p. c #AE7F55",
"a. c #B57551",
"s. c #9C4B69",
"d. c #CB6840",
"f. c #CC7245",
"g. c #D77140",
"h. c #D87341",
"j. c #D87645",
"k. c #D5794B",
"l. c #D47B4D",
"z. c #DB7848",
"x. c #DE7D4E",
"c. c #D77E56",
"v. c #C86A6C",
"b. c #C96B6D",
"n. c #AC8054",
"m. c #AF8454",
"M. c #B28658",
"N. c #B58B5D",
"B. c #BA9063",
"V. c #BE9366",
"C. c #B89673",
"Z. c #C18959",
"A. c #D58257",
"S. c #DB8154",
"D. c #DE885B",
"F. c #C88A64",
"G. c #DE8E63",
"H. c #C1976C",
"J. c #C39A6F",
"K. c #DD9269",
"L. c #CC9470",
"P. c #C59D72",
"I. c #D59A75",
"U. c #DE9F7A",
"Y. c #E1976E",
"T. c #C9A076",
"R. c #C2A17B",
"E. c #C9A27A",
"W. c #C9A57E",
"Q. c #CDA67D",
"!. c #E1A57F",
"~. c #4E0E80",
"^. c #440E89",
"/. c #471489",
"(. c #5F1F80",
"). c #5C139C",
"_. c #631897",
"`. c #6A17A1",
"'. c #7019AD",
"]. c #7337A8",
"[. c #7C2CBD",
"{. c #7438BC",
"}. c #7539C0",
"|. c #822E86",
" X c #973780",
".X c #8227B4",
"XX c #823FC7",
"oX c #8F4EC9",
"OX c #8D48D2",
"+X c #8F4ED5",
"@X c #CBA782",
"#X c #CFA881",
"$X c #D9A381",
"%X c #D1AB84",
"&X c #D3B18C",
"*X c #CDB698",
"=X c #D5B490",
"-X c #D8B895",
";X c #D9BB9A",
":X c #E0AC89",
">X c #E0B28F",
",X c #DAC0A0",
"<X c #DCC2A2",
"1X c #DFC7A8",
"2X c #E0CBAE",
"3X c #E3CFB2",
"4X c #E5D2B6",
"5X c #E6D5BB",
"6X c #E7D7BD",
"7X c #E8D9C0",
"8X c None",
/* pixels */
"8X8X8X8X8X8X8X8X8X8X8X8X8X8X8X8X8X8X8X8X8X8X8X8X8X8X8X8X8X8X8X8X8X8X8X8X8X8X8X8X8X8X8X8X8X8X8X8X8X8X8X8X8X8X8X8X8X8X8X8X8X8X8X8X",
"8X8X8X8X8X8X8X8X8X8X8X8X8X8X8X8X8X8X8X8X8X8X8X8X8X8X8X8X8X8X8X8X8X8X8X8X8X8X8X8X8X8X8X8X8X8X8X8X8X8X8X8X8X8X8X8X8X8X8X8X8X8X8X8X",
"8X8X8X8X8X8X8X8X8X8X8X8X8X8X8X8X8X8X8X8X8X8X8X8X8X8X8X8X8X8X8X8X8X8X8X8X8X8X8X8X8X8X8X8X8X8X8X8X8X8X8X8X8X8X8X8X8X8X8X8X8X8X8X8X",
"8X8X8X8X8X8X8X8X8X8X8X8X8X8X8X8X8X8X8X8X8X8X8X8X8X8X8X8X8X8X8X8X8X8X8X8X8X8X8X8X8X8X8X8X8X8X8X8X8X8X8X8X8X8X8X8X8X8X8X8X8X8X8X8X",
"8X8X8X8X8X8X8X8X8X8X8X8X8X8X8X8X8X8X8X8X8X8X8X8X8X8X8X8X8X8XB , 8X8X8X8X8X8X8X8X8X8X8X8X8X8X8X8X8X8X8X8X8X8X8X8X8X8X8X8X8X8X8X8X",
"8X8X8X8X8X8X8X8X8X8X8X8X8X8X8X8X8X8X8X8X8X8X8X8X8X8X8X& & $ Y K 3 8X8X8X8X8X8X8X8X8X8X8X8X8X8X8X8X8X8X8X8X8X8X8X8X8X8X8X8X8X8X8X",
"8X8X8X8X8X8X8X8X8X8X8X8X8X8X8X8X8X8X8X8X8X8X8X8X& . X +     ; J 2 8X8X8X8X8X8X8X8X8X8X8X8X8X8X8X8X8X8X8X8X8X8X8X8X8X8X8X8X8X8X8X",
"8X8X8X8X8X8X8X8X8X8X8X8X8X8X8X8X8X8X8X8X8X8X8XX     +         # = o 8X8X8X8X8X8X8X8X8X8X8X8X8X8X8X8X8X8X8X8X8X8X8X8X8X8X8X8X8X8X",
"8X8X8X8X8X8X8X8X8X8X8X8X8X8X8X8X8X8X8X8X8X8X8X@   * N : %       . 8X8X8X8X8X8X8X8X8X8X8X8X8X8X8X8X8X8X8X8X8X8X8X8X8X8X8X8X8X8X8X",
"8X8X8X8X8X8X8X8X8X8X8X8X8X8X8X8X8X8X8X8X8X8X8X- @ : H a w.: = % O 8X8X8X8X8X8X8X8X8X8X8X8X8X8X8X8X8X8X8X8X8X8X8X8X8X8X8X8X8X8X8X",
"8X8X8X8X8X8X8X8X8X8X8X8X8X8X8X8X8X8X8X8X8X8X8X8X- G 5.;.F.H G [ O 8X8X8X8X8X8X8X8X8X8X8X8X8X8X8X8X8X8X8X8X8X8X8X8X8X8X8X8X8X8X8X",
"8X8X8X8X8X8X8X8X8X8X8X8X8X8X8X8X8X8X8X8X8X8X8X8X8X#.D.K.l.^ ! 1 @ - 8X8X8X8X8X8X8X8X8X8X8X8X8X8X8X8X8X8X8X8X8X8X8X8X8X8X8X8X8X8X",
"8X8X8X8X8X8X8X8X8X8X8X8X8X8X8X8X8X8X8X8X8X8X8X8X8X] l.:XD.^ 1 # + 2 8X8X8X8X8X8X8X8X8X8X8X8X8X8X8X8X8X8X8X8X8X8X8X8X8X8X8X8X8X8X",
"8X8X8X8X8X8X8X8X8X8X8X8X8X8X8X8X8X8X8X8X8X8X8X8X8Xe t.I.5.^ 1 + & 8X8X8X8X8X8X8X8X8X8X8X8X8X8X8X8X8X8X8X8X8X8X8X8X8X8X8X8X8X8X8X",
"8X8X8X8X8X8X8X8X8X8X8X8X8X8X8X8X8X8X8X8X8X8X8X8X8X8X[ =.H ,.#.5 n `.^.g 8X8X8X8X8X8X8X8X8X8X8X8X8X8X8X8X8X8X8X8X8X8X8X8X8X8X8X8X",
"8X8X8X8X8X8X8X8X8X8X8X8X8X8X8X8X8X8X8X8X8X8X8X8X8X8X8X6 0 ,.g.O..X[._.c 6 8X8X8X8X8X8X8X8X8X8X8X8X8X8X8X8X8X8X8X8X8X8X8X8X8X8X8X",
"8X8X8X8X8X8X8X8X8X8X8X8X8X8X8X8X8X8X8X8X8X8X8X8X8X8X8Xz 9.A.z.0..XXX_.8.%.Z 8X8X8X8X8X8X8X8X8X8X8X8X8X8X8X8X8X8X8X8X8X8X8X8X8X8X",
"8X8X8X8X8X8X8X8X8X8X8X8X8X8X8X8X8X8X8X8X8X8X8X8X8X8Xl m l.:XY.v..XXX(.d.K.a.) 8X8X8X8X8X8X8X8X8X8X8X8X8X8X8X8X8X8X8X8X8X8X8X8X8X",
"8X8X8X8X8X8X8X8X8X8X8X8X8X8X8X8X8X8X8X8X8X8X8X8X8X8X8.M U.>X!.b..XXX(.c.U.!.>.) 8X8X8X8X8X8X8X8X8X8X8X8X8X8X8X8X8X8X8X8X8X8X8X8X",
"8X8X8X8X8X8X8X8X8X8X8X8X8X8X8X8X8X8X8X8X8X8X8X8X8X8X0 M U.:XG.0..XXX_.s.S.K.6.4.) 8X8X8X8X8X8X8X8X8X8X8X8X8X8X8X8X8X8X8X8X8X8X8X",
"8X8X8X8X8X8X8X8X8X8X8X8X8X8X8X8X8X8X8X8X8X8X8X8X8X8X9 M D.G.3.O. XOX[._.s.d.S.K.k.8X8X8X8X8X8X8X8X8X8X8X8X8X8X8X8X8X8X8X8X8X8X8X",
"8X8X8X8X8X8X8X8X8X8X8X8X8X8X8X8X8X8X8X8X8X8X8X8X8X8Xh m g.z.3.,.$.oXOX'.~...7.Y.Y.%.8X8X8X8X8X8X8X8X8X8X8X8X8X8X8X8X8X8X8X8X8X8X",
"8X8X8X8X8X8X8X8X8X8X8X8X8X8X8X8X8X8X8X8X8X8X8X8X8X8X8Xk +.D.K.S.$.XXOX[.).8XX.-.6.z.D 8X8X8X8X8X8X8X8X8X8X8X8X8X8X8X8X8X8X8X8X8X",
"8X8X8X8X8X8X8X8X8X8X8X8X8X8X8X8X8X8X8X8X8X8X8X8X8X8X8Xj 1 l.!.U.$.|.+XOX[.).8XB #.A.W 8X8X8X8X8X8X8X8X8X8X8X8X8X8X8X8X8X8X8X8X8X",
"8X8X8X8X8X8X8X8X8X8X8X8X8X8X8X8X8X8X8X8X8X8X8X8X8X8X8Xh * +.D.Y.5.P oX+XOX'.b o.D.$X_ 8X8X8X8X8X8X8X8X8X8X8X8X8X8X8X8X8X8X8X8X8X",
"8X8X8X8X8X8X8X8X8X8X8X8X8X8X8X8X8X8X8X8X8X8X8X8X8X8X8X8Xj 1 ;.=.H P oX+X{.^.8X/ U.U.W 8X8X8X8X8X8X8X8X8X8X8X8X8X8X8X8X8X8X8X8X8X",
"8X8X8X8X8X8X8X8X8X8X8X8X8X8X8X8X8X8X8X8X8X8X8X8X8X8X8X8Xf # C C G P oX}./.8X8XF I.l.S 8X8X8X8X8X8X8X8X8X8X8X8X8X8X8X8X8X8X8X8X8X",
"8X8X8X8X8X8X8X8X8X8X8X8X8X8X8X8X8X8X8X8X8X8X8X8X8X8X8X8Xf ; Y T d.P ].v 8X8X8XF L.@.V 8X8X8X8X8X8X8X8X8X8X8X8X8X8X8X8X8X8X8X8X8X",
"8X8X8X8X8X8X8X8X8X8X8X8X8X8X8X8X8X8X8X8X8X8X8X8X8X8X8X8Xx k C T 2.L k 8 8X8X8XA F.W 8X8X8X8X8X8X8X8X8X8X8X8X8X8X8X8X8X8X8X8X8X8X",
"8X8X8X8X8X8X8X8X8X8X8X8X8X8X8X8X8X8X8X8X8X8X8X8X8X8X8XS o.G 4 U U I [ u.p 8XF ` f.D 8X8X8X8X8X8X8X8X8X8X8X8X8X8X8X8X8X8X8X8X8X8X",
"8X8X8X8X8X8X8X8X8X8X8X8X8X8X8X8X8X8X8X8X8X8X8X8X8X8X8X] =.R 7 Y I } M.H.{ ' F.$Xc.D 8X8X8X8X8X8X8X8X8X8X8X8X8X8X8X8X8X8X8X8X8X8X",
"8X8X8X8X8X8X8X8X8X8X8X8X8X8X8X8X8X8X8X8X8X8X8X8X8X8X .=.| M.a [ t.V.V.H.{ ;.| I.S.D 8X8X8X8X8X8X8X8X8X8X8X8X8X8X8X8X8X8X8X8X8X8X",
"8X8X8X8X8X8X8X8X8X8X8X8X8X8X8X8X8X8X8X8X8X8X8X8X8Xk.=.R r.J.m.N.P.V.#XP.&.` F.D.f.F 8X8X8X8X8X8X8X8X8X8X8X8X8X8X8X8X8X8X8X8X8X8X",
"8X8X8X8X8X8X8X8X8X8X8X8X8X8X8X8X8X8X8X8X8X8X8X8X-.@.=.} H.N.B.&X;XJ.1XQ.u.G +.6.E 8X8X8X8X8X8X8X8X8X8X8X8X8X8X8X8X8X8X8X8X8X8X8X",
"8X8X8X8X8X8X8X8X8X8X8X8X8X8X8X8X8X8X8X8X8X8X8X8X4.=.R r.T.N.P.1X#XP.2X%Xm.w N F 8X8X8X8X8X8X8X8X8X8X8X8X8X8X8X8X8X8X8X8X8X8X8X8X",
"8X8X8X8X8X8X8X8X8X8X8X8X8X8X8X8X8X8X8X8X8X8X8X8X) >.@.P.;XB.&X1XV.%X5X1XN.{ q 8X8X8X8X8X8X8X8X8X8X8X8X8X8X8X8X8X8X8X8X8X8X8X8X8X",
"8X8X8X8X8X8X8X8X8X8X8X8X8X8X8X8X8X8X8X8X8X8X8X8X8X8XZ.=X,XV.=X<XV.&X6X3XE.u.i 8X8X8X8X8X8X8X8X8X8X8X8X8X8X8X8X8X8X8X8X8X8X8X8X8X",
"8X8X8X8X8X8X8X8X8X8X8X8X8X8X8X8X8X8X8X8X8X8X8X8X8X8X&X4X,XV.%X#XH.2X7X4X#Xm.i 8X8X8X8X8X8X8X8X8X8X8X8X8X8X8X8X8X8X8X8X8X8X8X8X8X",
"8X8X8X8X8X8X8X8X8X8X8X8X8X8X8X8X8X8X8X8X8X8X8X8X8XW.3X7X,XV.Q.T.P.5X7X3X%XV.p 8X8X8X8X8X8X8X8X8X8X8X8X8X8X8X8X8X8X8X8X8X8X8X8X8X",
"8X8X8X8X8X8X8X8X8X8X8X8X8X8X8X8X8X8X8X8X8X8X8X8X8X=X7X3XR.u.Q.Q.%X5X7X4X#XN.i 8X8X8X8X8X8X8X8X8X8X8X8X8X8X8X8X8X8X8X8X8X8X8X8X8X",
"8X8X8X8X8X8X8X8X8X8X8X8X8X8X8X8X8X8X8X8X8X8X8X8X@X3X7X5X#Xr.T.H.&X5X7X4X#Xm.i 8X8X8X8X8X8X8X8X8X8X8X8X8X8X8X8X8X8X8X8X8X8X8X8X8X",
"8X8X8X8X8X8X8X8X8X8X8X8X8X8X8X8X8X8X8X8X8X8X8X8X=X7X7X7X*Xe.B.H.1X6X7X4XQ.w.t 8X8X8X8X8X8X8X8X8X8X8X8X8X8X8X8X8X8X8X8X8X8X8X8X8X",
"8X8X8X8X8X8X8X8X8X8X8X8X8X8X8X8X8X8X8X8X8X8X8X8X;X7X3X1X*Xw.M.J.5X7X7X4XE.&.t 8X8X8X8X8X8X8X8X8X8X8X8X8X8X8X8X8X8X8X8X8X8X8X8X8X",
"8X8X8X8X8X8X8X8X8X8X8X8X8X8X8X8X8X8X8X8X8X8X8X8X;X7X,XE.R.*.r.J.5X7X7X4XE.*.s e 8X8X8X8X8X8X8X8X8X8X8X8X8X8X8X8X8X8X8X8X8X8X8X8X",
"8X8X8X8X8X8X8X8X8X8X8X8X8X8X8X8X8X8X8X8X8X8X8X8X&X7X2X&XJ.w.{ V.,X6X5X;XT.*.w.i 8X8X8X8X8X8X8X8X8X8X8X8X8X8X8X8X8X8X8X8X8X8X8X8X",
"8X8X8X8X8X8X8X8X8X8X8X8X8X8X8X8X8X8X8X8X8X8X8X8XB.1X7X4X=Xu.{ u.&X2XC.N.P.n.N.p 8X8X8X8X8X8X8X8X8X8X8X8X8X8X8X8X8X8X8X8X8X8X8X8X",
"8X8X8X8X8X8X8X8X8X8X8X8X8X8X8X8X8X8X8X8X8X8X8X8Xr.Q.2X4X-XN.{ *.E.C.i.i.M.H.B.p 8X8X8X8X8X8X8X8X8X8X8X8X8X8X8X8X8X8X8X8X8X8X8X8X",
"8X8X8X8X8X8X8X8X8X8X8X8X8X8X8X8X8X8X8X8X8X8X8X8Xq.M.&X-X#XJ.*.d B.p.i.l.w.P.M.i 8X8X8X8X8X8X8X8X8X8X8X8X8X8X8X8X8X8X8X8X8X8X8X8X",
"8X8X8X8X8X8X8X8X8X8X8X8X8X8X8X8X8X8X8X8X8X8X8X8X8Xr.T.#X#XT.u.d r.V.n.i.y.V.r.i 8X8X8X8X8X8X8X8X8X8X8X8X8X8X8X8X8X8X8X8X8X8X8X8X",
"8X8X8X8X8X8X8X8X8X8X8X8X8X8X8X8X8X8X8X8X8X8X8X8X8Xq.m.P.P.V.r.{ a u.V.y.M.m.&.t 8X8X8X8X8X8X8X8X8X8X8X8X8X8X8X8X8X8X8X8X8X8X8X8X",
"8X8X8X8X8X8X8X8X8X8X8X8X8X8X8X8X8X8X8X8X8X8X8X8X8X8Xq.e.u.r.{ u y { y.u.M.y.d q 8X8X8X8X8X8X8X8X8X8X8X8X8X8X8X8X8X8X8X8X8X8X8X8X",
"8X8X8X8X8X8X8X8X8X8X8X8X8X8X8X8X8X8X8X8X8X8X8X8X8X8X8Xy [ | ` > 8Xr s { w.d R B 8X8X8X8X8X8X8X8X8X8X8X8X8X8X8X8X8X8X8X8X8X8X8X8X",
"8X8X8X8X8X8X8X8X8X8X8X8X8X8X8X8X8X8X8X8X8X8X8X8X8X8X8X8XV ^ ( V 8X8Xr y w R +.B 8X8X8X8X8X8X8X8X8X8X8X8X8X8X8X8X8X8X8X8X8X8X8X8X",
"8X8X8X8X8X8X8X8X8X8X8X8X8X8X8X8X8X8X8X8X8X8X8X8X8X8X8X8X8XQ 6./ 8X8X8X8X, ~ 6.E 8X8X8X8X8X8X8X8X8X8X8X8X8X8X8X8X8X8X8X8X8X8X8X8X",
"8X8X8X8X8X8X8X8X8X8X8X8X8X8X8X8X8X8X8X8X8X8X8X8X8X8X8X8X8X~ l.( > 8X8X8X8XA l.4.8X8X8X8X8X8X8X8X8X8X8X8X8X8X8X8X8X8X8X8X8X8X8X8X",
"8X8X8X8X8X8X8X8X8X8X8X8X8X8X8X8X8X8X8X8X8X8X8X8X8X8X8X8X8X5.U.f.F 8X8X8X8XA I.c.E 8X8X8X8X8X8X8X8X8X8X8X8X8X8X8X8X8X8X8X8X8X8X8X",
"8X8X8X8X8X8X8X8X8X8X8X8X8X8X8X8X8X8X8X8X8X8X8X8X8X8X8X8X8X7.!.z.( > 8X8X8XE $XG.#.B 8X8X8X8X8X8X8X8X8X8X8X8X8X8X8X8X8X8X8X8X8X8X",
"8X8X8X8X8X8X8X8X8X8X8X8X8X8X8X8X8X8X8X8X8X8X8X8X8X8X8X4.k.S.K.z.5.< 8X8X8X-.:XU.l.W 8X8X8X8X8X8X8X8X8X8X8X8X8X8X8X8X8X8X8X8X8X8X",
"8X8X8X8X8X8X8X8X8X8X8X8X8X8X8X8X8X8X8X8X8X8X8X8X8X1.x.x.h.:.:.:./ , 8X8X8Xj.<.<.h.:.8X8X8X8X8X8X8X8X8X8X8X8X8X8X8X8X8X8X8X8X8X8X",
"8X8X8X8X8X8X8X8X8X8X8X8X8X8X8X8X8X8X8X8X8X8X8X8X8X8X8X8X8X8X8X8X8X8X8X8X8X8X8X8X8X8X8X8X8X8X8X8X8X8X8X8X8X8X8X8X8X8X8X8X8X8X8X8X",
"8X8X8X8X8X8X8X8X8X8X8X8X8X8X8X8X8X8X8X8X8X8X8X8X8X8X8X8X8X8X8X8X8X8X8X8X8X8X8X8X8X8X8X8X8X8X8X8X8X8X8X8X8X8X8X8X8X8X8X8X8X8X8X8X",
"8X8X8X8X8X8X8X8X8X8X8X8X8X8X8X8X8X8X8X8X8X8X8X8X8X8X8X8X8X8X8X8X8X8X8X8X8X8X8X8X8X8X8X8X8X8X8X8X8X8X8X8X8X8X8X8X8X8X8X8X8X8X8X8X",
"8X8X8X8X8X8X8X8X8X8X8X8X8X8X8X8X8X8X8X8X8X8X8X8X8X8X8X8X8X8X8X8X8X8X8X8X8X8X8X8X8X8X8X8X8X8X8X8X8X8X8X8X8X8X8X8X8X8X8X8X8X8X8X8X",
"8X8X8X8X8X8X8X8X8X8X8X8X8X8X8X8X8X8X8X8X8X8X8X8X8X8X8X8X8X8X8X8X8X8X8X8X8X8X8X8X8X8X8X8X8X8X8X8X8X8X8X8X8X8X8X8X8X8X8X8X8X8X8X8X"
};
