/* XPM */
static char *_c0aaebf057249d4fc8d8cd2a8c07f21JJWHCMTBvh63koEJ[] = {
/* columns rows colors chars-per-pixel */
"64 63 137 2 ",
"   c #E8BF7B",
".  c #EBC47E",
"X  c #E8C07B",
"o  c #ECC780",
"O  c #EDC882",
"+  c #E9C37E",
"@  c #ECC57F",
"#  c #E9C17C",
"$  c #EBC37D",
"%  c #E9C27E",
"&  c #E7BD78",
"*  c #E8BE78",
"=  c #EBC17C",
"-  c #E7BE7B",
";  c #EAC27C",
":  c #EFCF92",
">  c #ECC98B",
",  c #E6BB77",
"<  c #EAC581",
"1  c #737E4D",
"2  c #EBC788",
"3  c #EECC8E",
"4  c #B2C863",
"5  c #9AA55F",
"6  c #556C37",
"7  c #EBC883",
"8  c #8FA056",
"9  c #6E7A49",
"0  c #BBC76C",
"q  c #96A25B",
"w  c #95AE52",
"e  c #738747",
"r  c #6A7746",
"t  c #486028",
"y  c #57742F",
"u  c #6B8240",
"i  c #637440",
"p  c #E4C17F",
"a  c #ABC65C",
"s  c #E0BF7E",
"d  c #EAC486",
"f  c #CEB377",
"g  c #526934",
"h  c #DBBC7D",
"j  c #768948",
"k  c #D3B77B",
"l  c #66803B",
"z  c #5E713D",
"x  c #465C26",
"c  c #596F3A",
"v  c #7B8251",
"b  c #6E8443",
"n  c #C2B375",
"m  c #E8C283",
"M  c #7A8C4D",
"N  c #5C7934",
"B  c #CCB979",
"V  c #7D9747",
"C  c #EECA84",
"Z  c #C4AE74",
"A  c #607D35",
"S  c #4C652C",
"D  c #82994C",
"F  c #789444",
"G  c #647742",
"H  c #536F2C",
"J  c #868958",
"K  c #BBA770",
"L  c #E7BC77",
"P  c #B8B072",
"I  c #8A9E52",
"U  c #889B50",
"Y  c #D9B879",
"T  c #A1A762",
"R  c #3F5B22",
"E  c #6B873B",
"W  c #ABAC6A",
"Q  c #8EAA4E",
"!  c #A0AD61",
"~  c #A2B45F",
"^  c #E5C481",
"/  c #506929",
"(  c #73824B",
")  c #9D9561",
"_  c #8B9256",
"`  c #E5BC78",
"'  c #314619",
"]  c #E1BC7C",
"[  c #808F4F",
"{  c #A79B67",
"}  c #7D8753",
"|  c #808455",
" . c #8D8D5C",
".. c #8F955B",
"X. c #DAC682",
"o. c #384D1D",
"O. c #D0BD7A",
"+. c #B0A16B",
"@. c #3C5221",
"#. c #DDC17F",
"$. c #839C4B",
"%. c #C4C873",
"&. c #997E60",
"*. c #849155",
"=. c #99B057",
"-. c #818C56",
";. c #6A7C44",
":. c #989A5F",
">. c #F0D398",
",. c #C4BA77",
"<. c #73903D",
"1. c #758D43",
"2. c #ADB666",
"3. c #94905E",
"4. c #A4A066",
"5. c #CEC87A",
"6. c #8E995B",
"7. c #D9BF7E",
"8. c #B9B86E",
"9. c #92A559",
"0. c #E4B975",
"q. c #A4BC5C",
"w. c #B1C564",
"e. c #ACA76B",
"r. c #415622",
"t. c #B1BD6C",
"y. c #6B8C38",
"u. c #A4C454",
"i. c #A38969",
"p. c #263A13",
"a. c #85A346",
"s. c #887654",
"d. c #767348",
"f. c #83664D",
"g. c #CFC478",
"h. c #60633A",
"j. c #694D34",
/* pixels */
">.3 3 : 3 : : : > 3 > > 3 : 3 > 3 : > 2 3 2 2 2 : > > 7 3 > > > d 2 > 3 < d 2 > 2 2 2 3 > m 2 > 3 > d > > 3 3 > d 2 > 2 d 2 > > ",
"3 @ ; $ @ O 7 @ ; + + + o . o . C C # $ @ . @ * $ X # ; X   @ . #   * & X + C $ ; * ` ` + + % + . ; + # < + # + $ % # +   # X 2 ",
"3 * * = ; o . @ @ o $ . o # @ o o o @ @ $ + $ o O o * ; # + $ & $ + X * # + o $ %   # & # < % %   + # + < ; + < - . < + % # + > ",
": o ; $ . @ o $ . ; ; 7 o o o o X # + + . + @ ] ] k p < $ - + o @ . . < <   - # +   X # # $ + # X < + % % # # o . $ % % . < + 2 ",
": @ @ O O C C @ @ # < . . @ @ @ . $ . $ . o < Z ) | +.^ . s k k s o < X.,.g.X.# + < ;   # % % ` ; . + + # < + # % . + ; % # + d ",
"3 o @ o o $ o . @ o C @ . o . = o . o o . O $ { i r 1 f * B 6...Z ; ] 8.~ w.5.- % % ; k +.Z Y % % < + . # < . . % . <   + . ; m ",
": $ $ ; O . $ o o @ O . $ o o < @ ; @ o @ $ @ Z 6 1 r 3.o f e M 4.$ 7.~ q.a X.o ; X s 3.z -.e.p + < . % X * # # ; X X # % % + 2 ",
": . $ . . . . o X $ # O O $ @ @ 7 % @ X   Y p @ ) z ( i s s M [ ..+ O.=.w.0 p `   # { r ( A :.X < 7 %   - & + ; ` # % + + X ; m ",
": @ o o $ o $ O . ; = o C = # p B P 7.+ Z ..:.p h z G g ) % _ e *.^ 8.~ a 5.< + - f 9 } b [ Y *   # ; X # %   # * X # # % + ; d ",
">.@ + $ O o @ O @ . @ $ @ o 7 O.! I 5 B 4.b M 4.. +.g i 9 k 4.b e ,.=.q.w.^ # @ h 1 G j b k # %   X + +   # < X * # % # & % # 2 ",
">.o o + ; ; # $ @ ; $ ; < ; . O.w ! 9.I n [ [ e n Z 6 9 r ) :.e [ ! ~ w.4 p + h ) g e b n #   - ` % h n n ]     + ; X X       m ",
"> @ . @ o @ . X * X @ o 7 $ * - ,.=.~ $.q P j j M Z v z 1 1 ..e *.9.2.a %.< m +.r ( A :.^ 7 # #   B T U 5 ,.p +   * 0.  + - X m ",
"3 ; # . X + o o . < f e.n p @ $ X O.w Q $.q q b [ ..J S } v ;.b 6.w t.a 5.< k | v b b Z   % # s P U 9.w Q 8.p   -     ` -   % d ",
">.@ o o ; @ $ $ + k 4.j -.:.k @ X * O.=.! q U 1.M *.e R r v G A U w 0 a g.< +.1 ..u 4.+ . p B 5 D 9.! w 2.O.    # &     -   X m ",
": o @ @   @ o $ o B -.e _ j e K h < X 8.=.! q U l 6.-.S t | 6 N I =.w.u.X.k J J u l f . 7.P q U 9.w ~ O.# # Y Y ] -   X # X * m ",
": @ o $ . @ . o O ^ e.j b *.j A _ P h p 8.w ! 5 E u *.N R 9 g N D ~ a w.< {  .M y :.+ s W q 5 Q w 8.p - f { v | Z - X       &   ",
"> . O O O $ @ . . X X ] +.b l M j j :.h #.=.Q ! D A M e / c 6 ;.D =.a %.m | } A j h 7.W q ! w w 8.k K  .z i r G  .k   #   & - m ",
": O @ o @ O O @ p +.3.+.f h :.l M _ *.:.k B w Q 5 <.E j y r r G 8 q.w.g.K v b l Z p W 5 ! Q w W { | 6 g ;.1 g S 3.] X   & * `   ",
": @ C o $ C o $ k | i G i v ..-.l u ....:.Z B w Q I 1...e G G H $.q.4 O. ...j _ h W q ! Q Q U v 9 9 G c 6 i ) K h + X #   - ,   ",
"3 o O @ . o @ o 7.J z i z c G r ;.y y j 6.M Z ,.=.! U F 6.H z H V q.w.4.9 6.M B P q Q Q a.*.9 J v c 6 | Z ] + ^ k K K Y `   - m ",
"3 $ . @ < h Z K Z f f +.J i z r v ( y y u M _ P 8.~ T <.E H R H F w w 9 ( l 6.W e.! w I u -.( c S 1 { +.+.)  .1 i G r +.` X - m ",
"3 o . . ^ 4.G r z z 9 1  .1 9 S t g G N H A _ ..4.! Q V A y o.R E $.I g G H F 8 ! Q V ( G c R R r | | 9 i g 6 ;.} ( b :.k   , d ",
"3 @ @ % h 4.b e -.( i G r r 9 i 6 R R 6 ;.N A e M j F <.y S o.o.N 1.u t t y M 8 a.F -.v 6 g c G 9 1 J } ( b u u u u e e.s X L m ",
"3 . O @ ^ P M e e u u u e e -.-.} 1 6 g g c / H N y u e y R o.o.H A t t R y E y.1.( c x g r G *.M j u l l j 4.Z B Y 7.p % + # 2 ",
": o C ; @ 7 s p Y Y B 4...e N y N l b -.} z t R R t t H H t o.@./ H @.@.x y N H t @.x G -.-.u A y N j 4.f h - @ %     #   % ; 2 ",
"3 . @ ; . @ O C @ . ; + p B e...*.M e j [ M u S @.' ' o.t S r.o./ S @.r.t S x ' ' g ( M e u j :.e.P O.7.7.#.p ^ p p ^ < + * ; < ",
">.< # $ * = o + ^ 7.B n n n W T W e.q 6.1.N y y g x ' p.' t g x / r r.x r.' p.o.x g N E 5 P n 8.8.2.2.2.~ ! ~ 2.~ 2.2.,.^ # # 2 ",
": o o < p O.n W I 8 5 5 W T 8 I $.8 5 5 I F e b S @.o.o.' S d.s.d.&.d.d.' ' o.r.t l D Q ~ t.~ ~ t.t.t.t.t.q.q.q.t.~ ~ t.#.. . > ",
">.o ^ n T I V $.$.8 I $.$.<.<.<.D D 8 8 F V 1.l / x i { +.s.&.i.&.s.&.i.v t t / N <.Q q.4 4 4 a a a a 4 4 4 4 w.w.a a 0 ^ % # d ",
": @ O.q 8 5 5 $.F V I q U 8 T n B B #.O.8.t.$.l y H S r K i.&.j.f.j.f.&.3.u y y l <.$.w w a.Q =.! Q ! 8.,.B X.#.#.#.5.X.^ % < 2 ",
": ; O.T U V D q ,.,.B O.O.7.X.5.5.5.5.5.5.0 ~ $.1.A H H _ &.&.f.&.&.i.&.i._ x t x / g z ( ( } } i 9 v 9 1 J ) K h + ; % + %   2 ",
": % #.P q P 7.+ O < 7 X.%.0 0 0 4 4 0 0 0 q.a.<.E y / / i s.&.i.s.f.i.&.s.S t x t S / H y y 6 z g c i 1 | 1 r z i ) K f ]     > ",
": @ o < ^ * . 7 + X.%.0 0 0 w.4 a 4 a q.=.F N N / x x x r.h.&.&.&.f.s.&.d.@.@.R 6 N E D D D *.e 1 6 R R g 6 c i c z z 1 3.f X 2 ",
">.o $ @ o o o < 5.a 4 0 w.a u.u.q.Q [ -.M e A y H / S r.o.t J K &.i.h.g ;.R @.@.x N E F 9.! W 9.8 6.*._ } J r c 6 z 1 r z { p < ",
">.C o o o 7 X.0 4 4 4 a a u.q.8 *.( ;.E y.y.y.<.j / @.o.o.x @.h.x d.x x H y t x t g ;.1.I $.8 U 9.! T 5 T P n k Z  .i S z +.p d ",
": @ @ $ 7 5.4 w.0 a a w.w V [ J ( u l E D a.a.8 e x x o.r.r.' p.o.o.@.r.H A l / S z r 9 e.,.8 D <.V 9.! 5 8 5 n #.< h +.{ f - 2 ",
": o < 7 5.w.%.0 a 0 2.[ ;.1 v u A E F 5 w =.5 1 c g S x x r.' p.' ' @.@.x A 1.V 1.y e } v K 7.B e.F y.F I 9.8 D 8 ,.s X + #   d ",
": # < X.0 0 4 4 8.:.i g 9 G y E F $.Q w 2.7.) i ;./ 1 6 6 R p.p.@.' @.R R y <.Q ~ Q 1.[ ..1 3.f ` B W I U F $.9.$.V q n #.# * 2 ",
": ; < X.0 a w.W v c ;.c 6 l D 5 Q Q =.8.s K v _ l N M l H x o.' r.o.R S / H 1.w w.w.t.[ b u 1 | +.- < #.B P q D $.T 9.8 W #.  m ",
"3 X % X.%.%.n 1 9 } 6 ;.6.D W =.Q =.O.< f | 3.*.[ 6.V 1.N t @.r.t r.t H l N e w a %.%.,.*.N j -.9 ) Y   - % h O.q V I 8 q B < 2 ",
"3 # < > ^ % Z v c g ) P 8 5 =.Q ~ O.% f 9 ;.*.e n W 8 <.l t @.g c x t A 1.E l 6.=.w.0 %.O...y b  .1  .f -   &   ^ n U F T h + > ",
">.O o . X @ h { | K B U I =.w 2.7.# Z 9 9 b e :.k 5 T F b 6 6 1 u H g y.D I u 1 b q.4 4 0 O...N b -.r  .7.+ ,   % X k P n s   2 ",
"3 # - ; @ # < s ] s 5 V ! w 8.#.X Y | 9 e y ..h n 5 q 1.-.r  .J M *.i M V T E 6 1 I u.w.%.%.#.{ e A ( 6 J h # * , X - & ` # & m ",
": @ $ ; #   . o 7 e.F 9.w 2.s X f 3.1 _ y A f s q U U E 1 i ) J [ } z ( F 5 F S 1 -.~ u.0 0 %.s n M l ;.S 3.Y * & 0., X X X * m ",
": 7 7 . @ #   - n V 5 =.2.s X s { 9  .e y :.p W U U <.b 6 9 3.;.b M c G <.D D H g 1 M u.a %.0 5.^ f ..l e 6 3.Y # X ` -   * & m ",
"3 $ + ; o 7 7 k 5 q ~ w Y # % f J 9 -.l b k h T q F E } S v J 1 A _ z c E F q E S | v T a 4 0 0 X.# Y _ u -.G ) ] L X X X & ` 2 ",
": o o o + + m P D ! w 8.% % # Z r r b u 4.X B q q <.E v t v J } N e 6 z E <.q U N i 1  .,.a w.w.%.+ * Y [ l ;.1 f #   # # - ` 2 ",
": o < 7 o . ^ P 5 w ~ p .      .t } l ..k ] T 5 8 y.j | R 3.3.J A u 6 i M y.8 I j g r 9 k 0 a 4 a X.* # f e b { Y &   & 0.  - m ",
">.O < % $ $ 7 7.,.2.B o $ X ] | S j l e.% k 8 q D y.;.1 S { J J l e 9 z b y.U 5 6.6 i g K s 0 a 4 0 p +   f K f X - & & L * *   ",
": < o + # + + < X.X.< $ . # K t G u *.f # P I 5 F j i r i Z v 1 u _ J 6 ;.1.V q 5 -.6 6 )   7.a 0 4 5.% & - ` - X X 0.- & &   m ",
"3 7 o X X # # ; . % ; . ; -  .g  .N e.# p P D I $._ z i 1 k v 9 b ..3.c i [ F 8 q 4.6 1 9 Y , 0 4 0 0 #.L X - % -   X # # , , d ",
"3 < o C . X $ % O ;   # o f | r *.A n $ p q D D 5  .g c 3.h ) z b _ +.c z 6.V I U Z i 1 r K * #.a 4 4 X.#   % X - * &     X # > ",
"> o # + . $ . # @ . . o ; f 9 9 u j s X s 8 U V ,.) 6 6 4.< ) S l :.{ G G 4.I I F Z v c z {   - %.0 g.#.% # # + X & &   * X & 2 ",
": o < < + %   . . $ ; .   Y 3.} A :.X + B V 5 V k J r z { . K g ( [ ) i 9 +.q U V n ) c v K X , p X.s X X   * #   % & & * # + 2 ",
"3 # + < o 7 < 7 o #   % X p k +...K . + P I 5 I Y  .1 c { $ K g -.e v 6 r K q 8 U W h K Z ] L & L - - X , X * L , # % # X &   2 ",
">.% % . + & X % + % $ O + # # h k p * ] W U U 8 h  .i g ) * Z 9 } u ..J 3.Y T 8 q T - - # # - & * - * & & + + & ,   + .       m ",
">.o o % < 7 @ % # + + # $ < X % X X % p W 8 $.T p +.| | n ; Y v ;.u +.k Y ` T D 8 T ] , 0.X # ` - % # * * & - # , ` - # ` , & d ",
"> < < + @ < 7 . ; o . & * < # ,   X @ < h n P k ` ] Y Z p @ p { J :.f & ` , T V 8 W ] & * 0.` & - & X , * * - # , ` # + , 0.  m ",
": @ o + o . # + < < @ $ $ $ = +   * L * . - #.<   X $ # % + # s k f ]   , 0.k W P B 0.0.* * # -   X - L & ,   *   X   & & & , > ",
": O 7 % < o 7 7 + X . < X X 7 +   @ # + . &   . . < # % % - & & X & * # &   # s ] 0.` 0.` `   # 0.  & , - & * 0.- ,   , , * & d ",
": C C o . @ o 7 C o % < @ + o % # % $ % . * L & * - ; # % % & - ` 0., # X - & -   - ` ` & X - - 0.X < ` , ` X 0., * L & L -   m ",
": o C 3 C < . + o o 7 o @ * @ # < X X * + o   X X , & % #   $ * - & * X     0.0., * `   ` - 0.0., ` , * X 0.- % X X + X & & ` 2 ",
">.d 3 >.: >.: 3 > > : 3 > 3 3 2 : 3 2 2 > 3 > 2 2 2 d d > 2 > 2 d > d > > d d d 2 m - d m d d d > 2 d s d 2 m d 2 2 d d 2 > 2 > "
};
