/* XPM */
static char *_2bda3dd22394e20f9bb6c049ef833011uC2pgWQUza4VNKb[] = {
/* columns rows colors chars-per-pixel */
"64 64 256 2 ",
"   c None",
".  c #060506",
"X  c #0A0805",
"o  c #9AD5BE",
"O  c #18110B",
"+  c #413A36",
"@  c #A2DFC4",
"#  c #797F76",
"$  c #B6B4B2",
"%  c #131010",
"&  c #66766A",
"*  c #71614B",
"=  c #584739",
"-  c #534F45",
";  c #342F2B",
":  c #120E0E",
">  c #121010",
",  c #171516",
"<  c #0B0A0B",
"1  c #C6C6B2",
"2  c #A0E4D3",
"3  c #91B4A6",
"4  c #77978E",
"5  c #96C9BC",
"6  c #79988D",
"7  c #85A08F",
"8  c #93B1A1",
"9  c #AFD4C1",
"0  c #85AB9D",
"q  c #82A798",
"w  c #99B5A9",
"e  c #B9C2BC",
"r  c #838A74",
"t  c #CAD0BB",
"y  c #CECBAA",
"u  c #8EA796",
"i  c #A2B9B0",
"p  c #CAC099",
"a  c #979687",
"s  c #778B75",
"d  c #080707",
"f  c #A69E75",
"g  c #9A8E70",
"h  c #A39070",
"j  c #767B73",
"k  c #746455",
"l  c #464E46",
"z  c #0B0A0A",
"x  c #26211E",
"c  c #120F0E",
"v  c #342E28",
"b  c gray6",
"n  c #674C37",
"m  c #95774F",
"M  c #7C5941",
"N  c #A67855",
"B  c #9D7451",
"V  c #2B211C",
"C  c #976134",
"Z  c #AE8464",
"A  c #4D443E",
"S  c #090708",
"D  c #0A090B",
"F  c #C27D4A",
"G  c #A4D4BE",
"H  c #4D5F5B",
"J  c #586B66",
"K  c #43514C",
"L  c #7F968A",
"P  c #748374",
"I  c #96BEAD",
"U  c #98C8BB",
"Y  c #85A597",
"T  c #7D9185",
"R  c #7A9180",
"E  c #84AB9F",
"W  c #99B8A7",
"Q  c #BDE6CF",
"!  c #A8DBC4",
"~  c #6A867C",
"^  c #AFB3A5",
"/  c #A2C5B5",
"(  c #8FAC90",
")  c #A59B84",
"_  c #A0D7C2",
"`  c #627156",
"'  c #E8E9BE",
"]  c #909382",
"[  c #A1A9A6",
"{  c #0D0C0D",
"}  c #767E74",
"|  c #56524E",
" . c #767F6E",
".. c #81A28B",
"X. c #6B8379",
"o. c #8B8782",
"O. c #83847F",
"+. c #A29679",
"@. c #9DAC8D",
"#. c #D3C3AA",
"$. c #827F70",
"%. c #756A46",
"&. c #5C5C57",
"*. c #6D5B42",
"=. c #798E76",
"-. c #91A787",
";. c #94A481",
":. c #857A60",
">. c #B6B694",
",. c #393626",
"<. c #41544B",
"1. c #35372F",
"2. c #8A8062",
"3. c #806558",
"4. c #A57759",
"5. c #B8855C",
"6. c #453026",
"7. c #9CC7A7",
"8. c #0C0C0D",
"9. c #383937",
"0. c #C6854E",
"q. c #89876E",
"w. c #211B1C",
"e. c #5B4A36",
"r. c #BC7E4D",
"t. c #9EAF9B",
"y. c #1F1C1C",
"u. c #56392B",
"i. c #94E6BC",
"p. c #8DE7C1",
"a. c #92EBCC",
"s. c #91DEB3",
"d. c #261912",
"f. c #97E8C2",
"g. c #8EE5BE",
"h. c #92E1B4",
"j. c #93EACF",
"k. c #97E4BB",
"l. c #9BF2DA",
"z. c #95EDD5",
"x. c #8DE8C6",
"c. c #79A48A",
"v. c #94E9C3",
"b. c #99EBCA",
"n. c #95E1BA",
"m. c #8FC9A6",
"M. c #8ABC9C",
"N. c #8EE4BB",
"B. c #97EBC5",
"V. c #9BEFD3",
"C. c #76A289",
"Z. c #A4E5CB",
"A. c #A0E3C9",
"S. c #94EDD0",
"D. c #99E5C1",
"F. c #95F0D6",
"G. c #7DA88B",
"H. c #93DBB1",
"J. c #0B0B0D",
"K. c #301E15",
"L. c #1B1310",
"P. c #020104",
"I. c #935B35",
"U. c #D18942",
"Y. c #8DD2AF",
"T. c #A2E8C7",
"R. c #93EAC5",
"E. c #9AE9C4",
"W. c #93E3BB",
"Q. c #9FDFC4",
"!. c #8ACEAC",
"~. c #92D6AF",
"^. c #94D0A8",
"/. c #3A2E25",
"(. c #BD8049",
"). c #AE6839",
"_. c #533423",
"`. c #9BCAA6",
"'. c #7A553B",
"]. c #A96D40",
"[. c #191816",
"{. c #BB783B",
"}. c #CD7E3A",
"|. c #A8A589",
" X c #E68E39",
".X c #C27D3D",
"XX c #9AEED8",
"oX c #A0EBD6",
"OX c #8FEAC7",
"+X c #91E6C4",
"@X c #A0EACE",
"#X c #A2F1D9",
"$X c #82B195",
"%X c #99D9C2",
"&X c #95D8B1",
"*X c #8EC4A3",
"=X c #ABC1A3",
"-X c #120F0E",
";X c #875A3E",
":X c #B47042",
">X c #9EDDB8",
",X c #9C572F",
"<X c #BA8F5C",
"1X c #C68645",
"2X c #9CB596",
"3X c #584C3A",
"4X c #A0D7AC",
"5X c #90A287",
"6X c #90E7C9",
"7X c #9CE8CA",
"8X c #90D8B5",
"9X c #7A9D8B",
"0X c #86B699",
"qX c #95CDB0",
"wX c #80B090",
"eX c #919D89",
"rX c #6F6D5E",
"tX c #8DB093",
"yX c #734018",
"uX c #607464",
"iX c #3C3E33",
"pX c #333935",
"aX c #25231F",
"sX c #3E352B",
"dX c #674636",
"fX c #946346",
"gX c #9C6E43",
"hX c #AAB18D",
"jX c #95AE97",
"kX c #98C09C",
"lX c #8B502F",
"zX c #5C6B62",
"xX c #A9BB96",
"cX c #C98246",
"vX c #A47C53",
"bX c #77725C",
"nX c #604027",
"mX c #958A66",
"MX c #4D574F",
"NX c #9F8E6C",
"BX c #DC8538",
"VX c #929A83",
"CX c #9EAAA6",
"ZX c #98A598",
"AX c #A1A391",
"SX c #40240E",
"DX c #B2B490",
"FX c #824311",
"GX c #5B5B49",
"HX c #A9DFC4",
"JX c #BA6D3A",
"KX c #A99570",
"LX c #D18340",
"PX c #C89355",
"IX c #858260",
"UX c #CF8F4E",
/* pixels */
"                                                                                                                                ",
"                                                                                                                                ",
"                                                                                                                                ",
"                                                                                                                                ",
"                                                                                                                                ",
"                                                                                                                                ",
"                                                                                                                                ",
"                                                                                                                                ",
"                                                            > v A                                                               ",
"                                                          : aXpXiX1.                                                            ",
"                                                        9.MXzXuXrXiX<.                                                          ",
"                                                      8.[.-X. . -XaXpX&.                                                        ",
"                                                    < . J.[.sX/.nX;Xd.z                                                         ",
"                                                  < . J.d.'.'.;X{.].n J.:                                                       ",
"                                                d . L.SXyX).I.C :XdX/.J.z                                                       ",
"                                                d . d.yXFX,X}.}.:XfXL.J.V                                                       ",
"                                                  . . K./.lXJX,X).I.K.[.k                                                       ",
"                                                  v -XP.d.;X:XfX_._.n 2.                                                        ",
"                                                    M I.].lX).]._.dXB                                                           ",
"                                                    r. X X{.,XI.).cXB                                                           ",
"                                                    C  XBXBX1X(.LXU.N                                                           ",
"                                                  S '.U.vXNXhXxX+.|.t.                                                          ",
"                                                  [.VX|.5XkX4X4X4X>XHXu                                                         ",
"                                                  < bX|.5XH.~.^.Y.>XH.                                                          ",
"                                                  A I.UXIXM.~.~.H.^.0X                                                          ",
"                                                    F U.3X& ^.~.s.kX^.                                                          ",
"                                                    F .Xd.H M.H.H.~.`.                                                          ",
"                                                  V }..Xd.P.GX`.~.~.^.                                                          ",
"                                                S K.}.{.d.[.5XH.~.~.=XM.                                                        ",
"                                                P.K..X].L.zX( H.H.^.^.i                                                         ",
"                                              > P.d..X'./.M.m.m.H.~.qXQ._                                                       ",
"                                              > P.d.{._.uX~.~.&XH.H.H.D.Z./                                                     ",
"                                                . d.gXsXM.H.~.H.H.^.s.W.E.!                                                     ",
"                                                : d.gXGX^.H.H.s.H.M.Y.W.f.@                                                     ",
"                                                6.d.(.mXm.H.s.s.h.$X*Xi.f.Z.                                                    ",
"                                                w.K.(.f M.n.h.h.h.wXM.k.f.T.                                                    ",
"                                                  e.4.=.0Xn.n.h.h.G.M.k.D.T.                                                    ",
"                                                    3.rXqXk.W.N.n.c.*Xi.i.T.                                                    ",
"                                                      9XD.+Xg.N.n.9Xm.k.D.T.                                                    ",
"                                                      Q.b.v.+XN.s.C.Y.k.f.A.                                                    ",
"                                                    ~ A.b.R.g.N.h.c.~.i.B.Q.                                                    ",
"                                                    6 @XR.v.p.N.s.C.8Xi.E.@                                                     ",
"                                                    0 oXa.p.p.N.s.c.H.i.E.o                                                     ",
"                                                    5 XXj.x.p.g.s.c.s.i.E.o                                                     ",
"                                                    2 z.a.OX+Xg.8XC.s.i.B.o                                                     ",
"                                                  U XXS.a.6X+XN.Y.C.h.k.E.o                                                     ",
"                                                  2 XXj.j.6X+Xg.Y.c.h.i.f.@                                                     ",
"                                                5 l.S.j.a.OXp.N.Y.c.h.i.f.A.                                                    ",
"                                              q oXV.z.j.x.x.p.N.!.G.W.i.v.7X                                                    ",
"                                              o l.S.z.j.OXx.p.g.m.$Xk.i.R.7X3                                                   ",
"                                            6 oXV.S.j.a.a.x.x.i.0XM.k.i.v.@XI                                                   ",
"                                            E #XV.S.j.j.j.a.x.W.C.^.i.v.B.Z.3                                                   ",
"                                            0 #XF.F.z.j.S.a.R.!.c.k.i.v.b.Z.                                                    ",
"                                            q #Xl.F.z.z.F.S.n.G.!.f.E.b.V.G                                                     ",
"                                              A.l.l.l.l.l.Q.$X*Xf.f.b.V.A.u                                                     ",
"                                              ..%X%X%XA.`.;.=.>XD.E.@X@ (                                                       ",
"                                              } ZX .`       *.eXtXG.(                                                           ",
"                                              i a           k AXM.M.*X                                                          ",
"                                            [ CXO.          :.>.t a +.                                                          ",
"                                            t ^                                                                                 ",
"                                                                                                                                ",
"                                                                                                                                ",
"                                                                                                                                ",
"                                                                                                                                "
};
